<?xml version="1.0" standalone="no"?>
<!DOCTYPE svg PUBLIC "-//W3C//DTD SVG 1.1//EN" "http://www.w3.org/Graphics/SVG/1.1/DTD/svg11.dtd" >
<svg xmlns="http://www.w3.org/2000/svg">
<metadata></metadata>
<defs>
<font id="baffledregular" horiz-adv-x="2048" >
<font-face units-per-em="2048" ascent="1679" descent="-369" />
<missing-glyph horiz-adv-x="833" />
<glyph />
<glyph />
<glyph unicode="&#xd;" />
<glyph unicode=" "  horiz-adv-x="833" />
<glyph unicode="&#x09;" horiz-adv-x="833" />
<glyph unicode="&#xa0;" horiz-adv-x="833" />
<glyph unicode="!" horiz-adv-x="438" d="M2 0v307h207v-307h-207zM2 1430v428h207v-428l-66 -910h-75z" />
<glyph unicode="&#x22;" horiz-adv-x="585" d="M25 1855h204l-30 -278h-136zM301 1855h205l-31 -278h-135z" />
<glyph unicode="#" horiz-adv-x="1132" d="M4 219v221l139 37v557l-139 -37v220l139 38v504h193v-452l201 53v399h190v-346l141 37v-219l-141 -41v-557l141 41v-221l-141 -37v-486h-190v432l-201 -53v-379h-193v326zM336 526l201 58v557l-201 -56v-559z" />
<glyph unicode="$" horiz-adv-x="1021" d="M0 297v262h205v-268q0 -141 135 -141h47q135 0 135 141v186q0 67 -21 105t-69 71l-256 183q-100 72 -138 149t-38 195v153q0 305 279 340v162h170v-162q278 -27 278 -336v-262h-205v271q0 141 -135 141h-43q-135 0 -135 -141v-164q0 -66 22.5 -103t73.5 -75l250 -179 q101 -72 139.5 -146.5t38.5 -195.5v-180q0 -313 -284 -340v-172h-170v172q-141 13 -210 96t-69 238z" />
<glyph unicode="%" horiz-adv-x="1286" d="M8 1001q0 -132 64 -196t196 -64h47q43 0 80 9l-250 -770h168l189 628v-379q0 -260 260 -260h47q260 0 260 260v596q0 260 -260 260h-47q-49 0 -80 -8l250 770h-168l-189 -630v380q0 261 -260 261h-47q-132 0 -196 -64.5t-64 -196.5v-596zM182 1012v571q0 53 25 78t76 25 h22q51 0 76 -25t25 -78v-571q0 -105 -99 -105h-24q-101 0 -101 105zM672 244v571q0 54 23.5 79.5t72.5 25.5h25q52 0 76 -25.5t24 -79.5v-571q0 -54 -24 -78.5t-76 -24.5h-21q-52 0 -76 24.5t-24 78.5z" />
<glyph unicode="&#x26;" horiz-adv-x="1277" d="M-6 307v375q0 102 29 177.5t96 135.5l104 90l-61 111q-40 73 -52 130t-12 144v80q0 324 324 324h47q319 0 319 -320v-272h-204v270q0 127 -127 127h-21q-129 0 -129 -127v-82q0 -40 1.5 -61t10 -54.5t25.5 -66.5l322 -608l131 422h196l-200 -629l260 -473h-228l-127 227 q-32 -92 -70.5 -142t-105 -75.5t-174.5 -25.5h-31q-323 0 -323 323zM199 305q0 -127 127 -127h61q58 0 85.5 31t55.5 115l39 122l-252 463l-36 -32q-43 -40 -61.5 -82.5t-18.5 -104.5v-385z" />
<glyph unicode="'" horiz-adv-x="376" d="M20 1638h203l-28 -278h-136z" />
<glyph unicode="(" horiz-adv-x="614" d="M10 432v752q0 231 25 367.5t86 240.5t188 231l133 -55q-79 -109 -119 -176t-71.5 -157t-41 -190.5t-9.5 -258.5v-758q0 -158 9.5 -258.5t41 -190.5t71.5 -157t119 -176l-133 -56q-127 127 -188 232t-86 242t-25 368z" />
<glyph unicode=")" horiz-adv-x="614" d="M10 -354q64 88 99 144t67 123.5t46 137.5t22 160t8 217v758q0 127 -8 217t-22 160t-46 137.5t-67 123.5t-99 144l133 55q127 -127 188 -231t86 -240.5t25 -367.5v-752q0 -231 -25 -368t-86 -242t-188 -232z" />
<glyph unicode="*" horiz-adv-x="876" d="M12 1323v158l203 102l-203 105v155h8l244 -143l-4 264h139l-8 -264l248 143h8v-155l-205 -105l205 -102v-158h-8l-248 141l8 -260h-139l4 260l-244 -141h-8z" />
<glyph unicode="+" horiz-adv-x="929" d="M-8 745v185h295v301h192v-301h293v-185h-293v-301h-192v301h-295z" />
<glyph unicode="," horiz-adv-x="477" d="M-6 -217l31 70q31 63 43 137h-72v307h207v-203q0 -87 -12.5 -133t-57.5 -115l-55 -88z" />
<glyph unicode="-" horiz-adv-x="655" d="M0 530v191h461v-191h-461z" />
<glyph unicode="." horiz-adv-x="405" d="M0 0v307h207v-307h-207z" />
<glyph unicode="/" horiz-adv-x="718" d="M-6 0l344 2028h180l-344 -2028h-180z" />
<glyph unicode="0" />
<glyph unicode="3" />
<glyph unicode=":" horiz-adv-x="501" d="M0 0v307h207v-307h-207zM0 485v308h207v-308h-207z" />
<glyph unicode=";" horiz-adv-x="542" d="M2 -197l31 68q31 62 43 139h-72v307h207v-204q0 -85 -12.5 -131t-57.5 -115l-55 -88zM4 496v309h207v-309h-207z" />
<glyph unicode="=" />
<glyph unicode="?" horiz-adv-x="870" d="M12 1200v328q0 346 344 346h35q346 0 346 -346v-256q0 -40 -6.5 -72t-12.5 -51.5t-32 -54.5t-39 -50t-61 -69l-99 -113q-8 -9 -14 -18.5t-10 -16t-7 -18t-4.5 -16.5t-2 -20.5t-0.5 -20v-24.5v-26v-198h-183v264q0 39 5 69.5t9.5 48.5t24.5 46.5t29.5 39.5t46.5 50 q3 4 5 6t5 5.5t6 6.5l64 70q34 38 48.5 70t14.5 75v285q0 139 -135 139h-45q-135 0 -135 -139v-340h-197zM254 0v307h207v-307h-207z" />
<glyph unicode="@" horiz-adv-x="1308" d="M12 436v965q0 243 93.5 339.5t320.5 96.5h274q227 0 321.5 -96.5t94.5 -339.5v-901q0 -115 -45 -165t-141 -50h-64q-79 0 -117 25t-53 85q-45 -56 -104 -85t-119 -29q-92 0 -141 54.5t-49 149.5v285q0 100 33.5 149t121.5 78l234 80v213q0 55 -23.5 81t-75.5 26h-10 q-53 0 -77.5 -26t-24.5 -81v-151h-166v159q0 261 258 261h29q128 0 193 -66t65 -195v-849q0 -39 16.5 -56.5t52.5 -17.5h21q90 0 90 129v897q0 197 -71.5 271.5t-248.5 74.5h-274q-177 0 -248.5 -74.5t-71.5 -271.5v-965q0 -197 71.5 -271.5t248.5 -74.5h614v-90h-614 q-118 0 -194 20.5t-126.5 71.5t-72 133.5t-21.5 210.5zM449 528q0 -88 77 -88q61 0 146 60v415l-152 -53q-40 -13 -55.5 -36.5t-15.5 -69.5v-228z" />
<glyph unicode="A" horiz-adv-x="1003" d="M0 0l256 1671h-90v191h121h92h178l256 -1672h105v-190h-74h-135h-76l-41 283l-8 59h-332l-6 -31l-41 -311h-205zM279 535h278l-4 30l-133 965z" />
<glyph unicode="B" horiz-adv-x="1058" d="M0 545v190h170v934h-170v191h170h41h346q342 0 342 -344v-580q0 -120 -40 -188.5t-120 -100.5q84 -32 126 -101.5t42 -189.5v-10q0 -346 -346 -346h-391v545h-170zM377 190h180q139 0 139 144v61q0 80 -38 118t-117 38h-164v-361zM377 739h158q155 0 155 158v633 q0 71 -33.5 105t-105.5 34h-174v-930z" />
<glyph unicode="C" horiz-adv-x="937" d="M10 334v1171q0 342 348 342h33q168 0 242 -81.5t74 -254.5v-514h110v-190h-108h-101h-110v709q0 72 -30.5 105.5t-96.5 33.5h-4q-72 0 -107 -33.5t-35 -105.5v-1192q0 -142 142 -142h57q71 0 106 39t35 111h207q0 -344 -344 -344h-70q-348 0 -348 346z" />
<glyph unicode="D" horiz-adv-x="1054" d="M4 1669v191h137h74h277q209 0 309 -100.5t100 -309.5v-1036q0 -210 -100 -312t-309 -102h-351v1669h-137zM352 193h129q209 0 209 219v1042q0 108 -51 159.5t-158 51.5h-129v-1472z" />
<glyph unicode="E" horiz-adv-x="880" d="M12 340v192h105v1137h-105v191h211h479v-197h-372v-1135h358v-192h-358v-139h377v-197h-590v340h-105z" />
<glyph unicode="F" horiz-adv-x="829" d="M6 336v192h119v918q0 209 101 309.5t311 102.5l157 2v-199h-174q-86 0 -135 -47.5t-49 -132.5v-953h346v-192h-346v-336h-213v336h-117z" />
<glyph unicode="G" horiz-adv-x="858" d="M0 303v1172q0 342 346 342h80q165 0 228 -80.5t63 -257.5v-496h65v-190h-209h-65v692v16q0 32 -0.5 46t-5 33t-14 26t-26.5 12.5t-44 5.5h-64q-141 0 -141 -139v-1192q0 -141 141 -141h70q72 0 106.5 34.5t34.5 106.5v14h-174v195h379v-199q0 -346 -344 -346h-80 q-346 0 -346 346z" />
<glyph unicode="H" horiz-adv-x="1146" d="M6 1669v191h356v-1325h345v1325h215v-1670h104v-190h-209h-110v336h-345v-336h-210v1669h-146z" />
<glyph unicode="I" horiz-adv-x="522" d="M2 1272h135v-1272h105h108v1462h-135h-213v-190zM100 1669v191h250v-191h-250z" />
<glyph unicode="J" horiz-adv-x="905" d="M12 291v35h195v-41q0 -131 131 -131h37q127 0 127 131v34v492v823h-146v191h213h133v-1024v-482v-28q0 -160 -81 -243t-242 -83h-41q-161 0 -243.5 83t-82.5 243z" />
<glyph unicode="K" horiz-adv-x="1093" d="M2 1669v191h109h104h107v-1334h159q156 0 156 158v827h127h209v-188h-125v-596q0 -122 -40.5 -190.5t-123.5 -102.5q86 -23 126.5 -81.5t41.5 -162.5h121v-190h-121h-88h-125v178q0 83 -38.5 121.5t-121.5 38.5h-157v-338h-213v1669h-107z" />
<glyph unicode="L" horiz-adv-x="745" d="M2 1665v193h211h104v-1661h351v-197h-562v1665h-104z" />
<glyph unicode="M" horiz-adv-x="1505" d="M10 1665v193h213h252l236 -1463l235 1463h328v-1668h125v-190h-123h-211v1538l-252 -1538h-217l-256 1538v-1538h-203v1665h-127z" />
<glyph unicode="N" horiz-adv-x="1120" d="M10 0v190h86v1668h293l305 -1346v1346h99h208v-193h-104v-1665h-264l-336 1452v-1452h-76h-125h-86z" />
<glyph unicode="O" horiz-adv-x="905" d="M16 315v1172q0 344 344 344h80q346 0 346 -344v-1172q0 -346 -346 -346h-80q-344 0 -344 346zM229 305q0 -141 140 -141h63q72 0 106.5 34.5t34.5 106.5v1192q0 72 -34.5 106.5t-106.5 34.5h-63q-140 0 -140 -141v-1192z" />
<glyph unicode="P" horiz-adv-x="972" d="M6 1669v191h113h100h266q344 0 344 -342v-218q0 -344 -344 -344h-155v-956h-213v1661v8h-111zM330 1149h147q139 0 139 141v238q0 71 -34 104t-105 33h-147v-61v-455z" />
<glyph unicode="Q" horiz-adv-x="974" d="M16 313v1170q0 346 344 346h80q346 0 346 -346v-1139q0 -239 -161 -311l209 -82l-107 -168l-305 186h-62q-344 0 -344 344zM229 303q0 -141 140 -141h63q72 0 106.5 34.5t34.5 106.5v1190q0 72 -34.5 106.5t-106.5 34.5h-63q-140 0 -140 -141v-1190z" />
<glyph unicode="R" horiz-adv-x="1120" d="M12 1669v191h211h291q342 0 342 -344v-93q0 -122 -40.5 -190.5t-123.5 -102.5q88 -23 127 -82t39 -167v-691h121v-190h-119h-90h-121v874q0 83 -39 121.5t-123 38.5h-157v-1034h-213v1669h-105zM330 1221h159q156 0 156 159v148q0 71 -33.5 104t-105.5 33h-176v-444z" />
<glyph unicode="S" horiz-adv-x="954" d="M8 309v115h209v-123q0 -139 141 -139h43q140 0 140 139v4q0 65 -21.5 103.5t-70.5 74.5l-261 189q-101 72 -140.5 150t-39.5 194v471q0 342 348 342h54q170 0 252.5 -83.5t82.5 -252.5v-393h113v-193h-209h-108v592q0 141 -140 141h-36q-144 0 -144 -141v-481 q0 -65 23 -103t73 -73l258 -187q101 -73 140 -148t39 -194q0 -344 -344 -344h-60q-342 0 -342 340zM754 311v2v-2z" />
<glyph unicode="T" horiz-adv-x="905" d="M6 1663v197h770v-197h-276v-1470h84v-193h-84h-213v1663h-281z" />
<glyph unicode="U" horiz-adv-x="1107" d="M18 1638v191h211h158v-1524q0 -141 143 -141h52q139 0 139 141v1524h211v-1514q0 -346 -342 -346h-68q-344 0 -344 346v1323h-160z" />
<glyph unicode="V" horiz-adv-x="1099" d="M6 1671v191h213h107l198 -1420l199 1420h211l-295 -1862h-233l-265 1671h-135z" />
<glyph unicode="W" horiz-adv-x="1562" d="M0 1665v193h211h106l162 -1573l174 1573h211l172 -1571l144 1378h-93v193h213h105l-225 -1858h-275l-149 1331l-148 -1331h-276l-203 1665h-129z" />
<glyph unicode="X" horiz-adv-x="1107" d="M8 1665v193h109h104h109v-1174q0 -158 157 -158h31q154 0 154 158v1174h213v-1131q0 -122 -40.5 -190.5t-123.5 -102.5q86 -23 126.5 -80.5t41.5 -160.5h104v-191h-104h-105h-110v176q0 84 -38 122t-122 38h-49q-71 -8 -104 -46t-33 -114v-178h-213v186q0 107 39 166 t127 82q-83 34 -123.5 102.5t-40.5 190.5v938h-109z" />
<glyph unicode="Y" horiz-adv-x="1161" d="M8 1665v193h213h156v-1180q0 -146 147 -146h115h102v1326h211v-1512q0 -346 -344 -346h-131v197h119q142 0 145 139h-100h-131h-33v2q-313 15 -313 344v983h-156z" />
<glyph unicode="Z" horiz-adv-x="790" d="M14 0v195l430 1468h-417v195h628v-195l-430 -1470h219v94h211v-191v-96h-641z" />
<glyph unicode="[" horiz-adv-x="581" d="M16 -41v2017v43v146h461v-191h-270v-2017h270v-193h-461v48v147z" />
<glyph unicode="\" horiz-adv-x="718" d="M25 2028h180l344 -2028h-180z" />
<glyph unicode="]" horiz-adv-x="581" d="M16 -43h271v2017h-271v191h461v-146v-43v-2017v-147v-48h-461v193z" />
<glyph unicode="^" horiz-adv-x="817" d="M10 1092l242 544h186l242 -544h-178l-156 360l-158 -360h-178z" />
<glyph unicode="_" horiz-adv-x="1331" d="M4 0v180h1192v-180h-1192z" />
<glyph unicode="`" horiz-adv-x="1402" d="M367 1636h204l97 -278h-138z" />
<glyph unicode="a" horiz-adv-x="1011" d="M23 0l258 1671h-91v191h119h92h179l258 -1672h106v-190h-78h-131h-78l-20 141h-391l-19 -141h-204zM272 334h336l-30 229l-136 965l-145 -1026z" />
<glyph unicode="b" horiz-adv-x="1071" d="M4 1210v2v189h168v268h-168v191h170h41h166v-191v-262v-6h184q344 0 344 -344v-701v-10q0 -346 -344 -346h-393v1210h-168zM381 190h178q141 0 141 142l-2 2v737h2q0 139 -141 139h-178v-1020z" />
<glyph unicode="c" horiz-adv-x="964" d="M8 336v737q0 344 346 344h33q168 0 243 -83t75 -257v-45h110v-190h-110h-101h-108v241q0 142 -129 142h-5q-139 0 -139 -142v-757q0 -72 34 -106t105 -34h60q69 0 104 38.5t35 109.5h207q0 -342 -344 -342h-70q-346 0 -346 344z" />
<glyph unicode="d" horiz-adv-x="1046" d="M6 338v8h2v707q0 344 344 344h183v6v254v192h208v-452h170v-191h-170v-1216h-391q-346 0 -346 348zM217 324q0 -142 141 -142h177v1024h-177q-72 0 -106.5 -34.5t-34.5 -106.5v-739v-2z" />
<glyph unicode="e" horiz-adv-x="851" d="M0 324v176v190v451q0 323 324 323h43q323 0 323 -323v-631h-487v-195q0 -127 127 -127h37q127 0 127 127v17h196v-8q0 -324 -323 -324h-43q-324 0 -324 324zM203 700h286v449q0 127 -129 127h-30q-127 0 -127 -127v-449z" />
<glyph unicode="f" horiz-adv-x="897" d="M8 336v192h117v815q0 199 94 300.5t285 109.5v107h192v-105v-104v-92h-174q-86 0 -135 -48t-49 -133v-850h346v-192h-346v-336h-213v336h-117z" />
<glyph unicode="g" horiz-adv-x="976" d="M-6 283v1171q0 342 346 342h80q164 0 226.5 -80.5t62.5 -257.5v-495h67v-191h-211h-63v692v16q0 39 -1.5 56t-9.5 35.5t-27 24.5t-52 6h-64q-72 0 -106.5 -33t-34.5 -105v-1194q0 -141 141 -141h70q139 0 139 141v17h-174v194h381v-198q0 -346 -344 -346h-80 q-346 0 -346 346z" />
<glyph unicode="h" horiz-adv-x="1132" d="M4 1669v191h146h104h106v-670h129q209 0 310.5 -101.5t101.5 -310.5v-588h123v-190h-123h-88h-108v797q0 86 -48 133t-133 47h-164v-442v-535h-210v1669h-146z" />
<glyph unicode="i" horiz-adv-x="477" d="M2 915h135v-915h103h110v1108h-137h-211v-193zM100 1313v190h250v-190h-250z" />
<glyph unicode="j" horiz-adv-x="870" d="M18 322v32h197v-41q0 -129 129 -129h37q129 0 129 129v35v492v233h-145v191h210h136v-435v-481v-26q0 -326 -324 -326h-43q-161 0 -243.5 82.5t-82.5 243.5zM451 1448v190h264v-190h-264z" />
<glyph unicode="k" horiz-adv-x="1107" d="M2 1669v191h107h104h106v-1334h160q156 0 156 158v827h127h209v-188h-125v-596q0 -122 -40.5 -190.5t-123.5 -102.5q87 -23 127.5 -81.5t40.5 -162.5h121v-190h-121h-88h-123v178q0 83 -39 121.5t-123 38.5h-158v-338h-213v1669h-104z" />
<glyph unicode="l" horiz-adv-x="786" d="M2 1675v185h315v-1565q12 -80 84 -98h267v-197h-219q-343 0 -343 344v1331h-104z" />
<glyph unicode="m" horiz-adv-x="1402" d="M0 0v481v656v319h176v-18q53 18 150 18h22q154 0 234 -74q83 74 235 74h21q146 0 230.5 -58.5t84.5 -178.5v-29v-53v-947h137v-190h-135h-74h-104v1180q-17 88 -123 88h-57q-115 0 -127 -101v-30v-645v-492h-178v481v656v6q0 125 -130 125h-57q-129 0 -129 -123v-653 v-492h-176z" />
<glyph unicode="n" horiz-adv-x="917" d="M10 0v479v635v21v321h176v-20v-6q71 26 170 26h31q168 0 241.5 -82t73.5 -256v-928h109v-190h-106h-103h-104v1124q0 140 -129 140h-4q-142 0 -142 -140v-1124h-35h-178z" />
<glyph unicode="o" horiz-adv-x="923" d="M0 309v529q0 344 344 344h80q344 0 344 -344v-529q0 -344 -344 -344h-80q-344 0 -344 344zM211 299q0 -72 34.5 -106.5t106.5 -34.5h64q139 0 139 141v549q0 141 -139 141h-64q-72 0 -106.5 -34.5t-34.5 -106.5v-549z" />
<glyph unicode="p" horiz-adv-x="956" d="M0 1067v190h111h100h266q346 0 346 -344v-561q0 -344 -346 -344h-153v-416h-213v1475h-111zM324 201h145q72 0 106.5 34.5t34.5 106.5v582q0 72 -34.5 106.5t-106.5 34.5h-145v-864z" />
<glyph unicode="q" horiz-adv-x="983" d="M2 293v999q0 346 346 346h78q346 0 346 -346v-966q0 -238 -162 -314l209 -82l-106 -168l-305 187h-60q-346 0 -346 344zM215 283q0 -140 139 -140h64q141 0 141 140v1022q0 139 -141 139h-64q-139 0 -139 -139v-1022z" />
<glyph unicode="r" horiz-adv-x="991" d="M2 1669v191h104h105h291q344 0 344 -347v-788q0 -122 -40.5 -190.5t-123.5 -102.5q88 -23 127 -82t39 -166v-184h-209v176q0 83 -39.5 122.5t-124.5 39.5h-156v-338h-213v1669h-104zM319 526h160q156 0 156 156v842q0 72 -34.5 106.5t-106.5 34.5h-175v-1139z" />
<glyph unicode="s" horiz-adv-x="978" d="M0 328v114h209v-123q0 -73 35.5 -116t105.5 -43h41q72 0 105.5 34t33.5 105v4q0 65 -21.5 103.5t-70.5 74.5l-260 189q-100 72 -139 149.5t-39 194.5v123q0 342 346 342h33q171 0 254.5 -83.5t83.5 -252.5v-86h112v-193h-208h-111v285q0 72 -33.5 106.5t-105.5 34.5h-17 q-141 0 -141 -141v-133q0 -65 23 -103t73 -73l258 -187q101 -73 139.5 -148t38.5 -194q-3 -344 -346 -344h-57q-169 0 -255.5 94.5t-86.5 266.5zM745 309v2v-2z" />
<glyph unicode="t" horiz-adv-x="794" d="M12 524v191h117v932h-117v190h119h92h119v-1116h346v-195h-344l2 -190q11 -77 56.5 -119.5t123.5 -42.5h174v-194l-157 2q-402 3 -408 354l-4 188h-119z" />
<glyph unicode="u" horiz-adv-x="1093" d="M14 1200v213h213h158v-1118q0 -141 143 -141h50q139 0 139 141v952h211v-942q0 -344 -342 -344h-66q-346 0 -346 344v895h-160z" />
<glyph unicode="v" horiz-adv-x="1087" d="M12 1245v191h213h107l198 -994l199 994h211l-295 -1436h-233l-265 1245h-135z" />
<glyph unicode="w" horiz-adv-x="1497" d="M0 1251v191h211h106l162 -1272l183 430h192l182 -428l162 1270h207l-225 -1440h-275l-149 336l-148 -336h-276l-203 1249h-129z" />
<glyph unicode="x" horiz-adv-x="1107" d="M6 1245v191h111h102h109v-752q0 -158 157 -158h31q156 0 156 158v561h213v-518q0 -121 -41 -190t-123 -103q85 -23 125 -80.5t41 -160.5h104v-191h-104h-105h-108v176q0 83 -38.5 121.5t-123.5 38.5h-49q-71 -8 -104 -46t-33 -114v-178h-213v186q0 107 39 166t127 82 q-82 34 -123 103t-41 190v518h-109z" />
<glyph unicode="y" horiz-adv-x="1114" d="M0 1237v190h211h156v-1095q0 -148 147 -148h117h100v1049h211v-1233h2q0 -346 -344 -346h-133v194h119q142 0 145 142h-100h-131h-33v2q-313 15 -313 344v901h-154z" />
<glyph unicode="z" horiz-adv-x="802" d="M14 0v195l430 1060h-417v195h628v-195l-428 -1062h217v94h211v-191v-96h-641z" />
<glyph unicode="}" />
<glyph unicode="~" horiz-adv-x="733" d="M10 444v183q0 60 31.5 91.5t91.5 31.5h19q40 0 68 -10.5t69 -39.5l114 -75q48 -33 64 -33h2q18 0 22.5 7t4.5 26v125h135v-185q0 -121 -121 -121h-21q-40 0 -67.5 10t-69.5 38l-114 75q-48 33 -64 33h-2q-18 0 -22.5 -7t-4.5 -26v-123h-135z" />
<glyph unicode="&#xad;" horiz-adv-x="655" d="M0 530v191h461v-191h-461z" />
<glyph unicode="&#x2000;" horiz-adv-x="1082" />
<glyph unicode="&#x2001;" horiz-adv-x="2165" />
<glyph unicode="&#x2002;" horiz-adv-x="1082" />
<glyph unicode="&#x2003;" horiz-adv-x="2165" />
<glyph unicode="&#x2004;" horiz-adv-x="721" />
<glyph unicode="&#x2005;" horiz-adv-x="541" />
<glyph unicode="&#x2006;" horiz-adv-x="360" />
<glyph unicode="&#x2007;" horiz-adv-x="360" />
<glyph unicode="&#x2008;" horiz-adv-x="270" />
<glyph unicode="&#x2009;" horiz-adv-x="433" />
<glyph unicode="&#x200a;" horiz-adv-x="120" />
<glyph unicode="&#x2010;" horiz-adv-x="655" d="M0 530v191h461v-191h-461z" />
<glyph unicode="&#x2011;" horiz-adv-x="655" d="M0 530v191h461v-191h-461z" />
<glyph unicode="&#x2012;" horiz-adv-x="655" d="M0 530v191h461v-191h-461z" />
<glyph unicode="&#x2013;" horiz-adv-x="1218" d="M0 530v191h1024v-191h-1024z" />
<glyph unicode="&#x2014;" horiz-adv-x="2242" d="M0 530v191h2048v-191h-2048z" />
<glyph unicode="&#x202f;" horiz-adv-x="433" />
<glyph unicode="&#x205f;" horiz-adv-x="541" />
<glyph unicode="&#xe000;" horiz-adv-x="1433" d="M0 0v1434h1434v-1434h-1434z" />
</font>
</defs>
</svg>
